<svg xmlns="http://www.w3.org/2000/svg" xmlns:xlink="http://www.w3.org/1999/xlink" width="375" height="812" viewBox="0 0 375 812">
  <defs>
    <style>
      .cls-1 {
        fill: none;
      }

      .cls-2 {
        clip-path: url(#clip-iPhone_X_XS_11_Pro_26);
      }

      .cls-3, .cls-7 {
        stroke: rgba(0,0,0,0);
        font-family: SegoeUI, Segoe UI;
      }

      .cls-3 {
        font-size: 16px;
      }

      .cls-4 {
        fill: #af83d3;
      }

      .cls-5 {
        stroke: #fff;
        stroke-linecap: round;
        stroke-linejoin: round;
        stroke-width: 3px;
      }

      .cls-6, .cls-7 {
        fill: #fff;
      }

      .cls-7 {
        font-size: 20px;
      }

      .cls-8 {
        clip-path: url(#clip-path);
      }

      .cls-9 {
        font-size: 10px;
        font-family: ArialMT, Arial;
      }

      .cls-10 {
        fill: #9b64c9;
      }

      .cls-11 {
        fill: #fafafa;
      }

      .cls-12 {
        filter: url(#Rectangle_111);
      }
    </style>
    <filter id="Rectangle_111" x="-9" y="-6" width="394" height="102" filterUnits="userSpaceOnUse">
      <feOffset dy="3" input="SourceAlpha"/>
      <feGaussianBlur stdDeviation="3" result="blur"/>
      <feFlood flood-opacity="0.161"/>
      <feComposite operator="in" in2="blur"/>
      <feComposite in="SourceGraphic"/>
    </filter>
    <clipPath id="clip-path">
      <rect class="cls-1" width="258" height="422"/>
    </clipPath>
    <clipPath id="clip-iPhone_X_XS_11_Pro_26">
      <rect width="375" height="812"/>
    </clipPath>
  </defs>
  <g id="iPhone_X_XS_11_Pro_26" data-name="iPhone X, XS, 11 Pro – 26" class="cls-2">
    <rect class="cls-11" width="375" height="812"/>
    <text id="NOTIFICATION" class="cls-3" transform="translate(136 170)"><tspan x="0" y="0">NOTIFICATION</tspan></text>
    <g id="Group_24" data-name="Group 24" transform="translate(11 1)">
      <g class="cls-12" transform="matrix(1, 0, 0, 1, -11, -1)">
        <rect id="Rectangle_111-2" data-name="Rectangle 111" class="cls-4" width="376" height="84"/>
      </g>
      <g id="Icon_feather-menu" data-name="Icon feather-menu" transform="translate(21.5 27)">
        <path id="Path_1" data-name="Path 1" class="cls-5" d="M4.5,18h27"/>
        <path id="Path_2" data-name="Path 2" class="cls-5" d="M4.5,9h27"/>
        <path id="Path_3" data-name="Path 3" class="cls-5" d="M4.5,27h27"/>
      </g>
      <path id="Icon_material-language" data-name="Icon material-language" class="cls-6" d="M17.985,3A15,15,0,1,0,33,18,14.993,14.993,0,0,0,17.985,3Zm10.4,9H23.955a23.474,23.474,0,0,0-2.07-5.34A12.044,12.044,0,0,1,28.38,12ZM18,6.06A21.13,21.13,0,0,1,20.865,12h-5.73A21.13,21.13,0,0,1,18,6.06ZM6.39,21a11.733,11.733,0,0,1,0-6h5.07a24.773,24.773,0,0,0-.21,3,24.773,24.773,0,0,0,.21,3Zm1.23,3h4.425a23.474,23.474,0,0,0,2.07,5.34A11.98,11.98,0,0,1,7.62,24Zm4.425-12H7.62a11.98,11.98,0,0,1,6.495-5.34A23.474,23.474,0,0,0,12.045,12ZM18,29.94A21.13,21.13,0,0,1,15.135,24h5.73A21.13,21.13,0,0,1,18,29.94ZM21.51,21H14.49a22.069,22.069,0,0,1-.24-3,21.877,21.877,0,0,1,.24-3h7.02a21.877,21.877,0,0,1,.24,3A22.069,22.069,0,0,1,21.51,21Zm.375,8.34A23.474,23.474,0,0,0,23.955,24H28.38a12.044,12.044,0,0,1-6.495,5.34ZM24.54,21a24.773,24.773,0,0,0,.21-3,24.773,24.773,0,0,0-.21-3h5.07a11.733,11.733,0,0,1,0,6Z" transform="translate(298 27)"/>
      <path id="Icon_awesome-chevron-down" data-name="Icon awesome-chevron-down" class="cls-6" d="M7.776,16.363.655,10.578a.624.624,0,0,1,0-1.01l.831-.675a1.029,1.029,0,0,1,1.242,0L8.4,13.476l5.67-4.585a1.029,1.029,0,0,1,1.242,0l.831.675a.624.624,0,0,1,0,1.01L9.02,16.363A1.029,1.029,0,0,1,7.776,16.363Z" transform="translate(331.602 47.317)"/>
      <text id="EN" class="cls-7" transform="translate(265 58)"><tspan x="0" y="0">EN</tspan></text>
    </g>
    <g id="Repeat_Grid_1" data-name="Repeat Grid 1" class="cls-8" transform="translate(68 244)">
      <g transform="translate(-68 -245)">
        <text id="_26_01_2022" data-name="26/01/2022" class="cls-3" transform="translate(242 268)"><tspan x="0" y="0">26/01/2022</tspan></text>
        <text id="_26_01_2022-2" data-name="26/01/2022" class="cls-3" transform="translate(242 364)"><tspan x="0" y="0">26/01/2022</tspan></text>
        <text id="_26_01_2022-3" data-name="26/01/2022" class="cls-3" transform="translate(243 460)"><tspan x="0" y="0">26/01/2022</tspan></text>
        <text id="_26_01_2022-4" data-name="26/01/2022" class="cls-3" transform="translate(243 555)"><tspan x="0" y="0">26/01/2022</tspan></text>
        <text id="Lorem_ipsum_dolor_sit_amet_consetetur_sadipscing_elitr_sed_diam_nonumy_eirmod_tempor_invidunt_ut_labore_et_dolore_magna_aliquyam_erat" data-name="Lorem ipsum dolor sit amet, consetetur sadipscing elitr, sed diam nonumy eirmod tempor invidunt ut labore et dolore magna aliquyam erat" class="cls-9" transform="translate(68 245)"><tspan x="0" y="9">Lorem ipsum dolor sit amet, </tspan><tspan x="0" y="20">consetetur sadipscing elitr, </tspan><tspan x="0" y="31">sed diam nonumy eirmod </tspan><tspan x="0" y="42">tempor invidunt ut labore et </tspan><tspan x="0" y="53">dolore magna aliquyam erat</tspan></text>
        <text id="Lorem_ipsum_dolor_sit_amet_consetetur_sadipscing_elitr_sed_diam_nonumy_eirmod_tempor_invidunt_ut_labore_et_dolore_magna_aliquyam_erat-2" data-name="Lorem ipsum dolor sit amet, consetetur sadipscing elitr, sed diam nonumy eirmod tempor invidunt ut labore et dolore magna aliquyam erat" class="cls-9" transform="translate(68 335)"><tspan x="0" y="9">Lorem ipsum dolor sit amet, </tspan><tspan x="0" y="20">consetetur sadipscing elitr, </tspan><tspan x="0" y="31">sed diam nonumy eirmod </tspan><tspan x="0" y="42">tempor invidunt ut labore et </tspan><tspan x="0" y="53">dolore magna aliquyam erat</tspan></text>
        <text id="Lorem_ipsum_dolor_sit_amet_consetetur_sadipscing_elitr_sed_diam_nonumy_eirmod_tempor_invidunt_ut_labore_et_dolore_magna_aliquyam_erat-3" data-name="Lorem ipsum dolor sit amet, consetetur sadipscing elitr, sed diam nonumy eirmod tempor invidunt ut labore et dolore magna aliquyam erat" class="cls-9" transform="translate(68 425)"><tspan x="0" y="9">Lorem ipsum dolor sit amet, </tspan><tspan x="0" y="20">consetetur sadipscing elitr, </tspan><tspan x="0" y="31">sed diam nonumy eirmod </tspan><tspan x="0" y="42">tempor invidunt ut labore et </tspan><tspan x="0" y="53">dolore magna aliquyam erat</tspan></text>
        <text id="Lorem_ipsum_dolor_sit_amet_consetetur_sadipscing_elitr_sed_diam_nonumy_eirmod_tempor_invidunt_ut_labore_et_dolore_magna_aliquyam_erat-4" data-name="Lorem ipsum dolor sit amet, consetetur sadipscing elitr, sed diam nonumy eirmod tempor invidunt ut labore et dolore magna aliquyam erat" class="cls-9" transform="translate(68 515)"><tspan x="0" y="9">Lorem ipsum dolor sit amet, </tspan><tspan x="0" y="20">consetetur sadipscing elitr, </tspan><tspan x="0" y="31">sed diam nonumy eirmod </tspan><tspan x="0" y="42">tempor invidunt ut labore et </tspan><tspan x="0" y="53">dolore magna aliquyam erat</tspan></text>
      </g>
    </g>
    <path id="Icon_ionic-ios-arrow-back" data-name="Icon ionic-ios-arrow-back" class="cls-10" d="M16.527,18,28.111,9.07a1.427,1.427,0,0,0,0-2.384,2.681,2.681,0,0,0-3.1,0L11.888,16.8a1.423,1.423,0,0,0-.064,2.327L25,29.32a2.685,2.685,0,0,0,3.1,0,1.427,1.427,0,0,0,0-2.384Z" transform="translate(44.749 720.807)"/>
  </g>
</svg>
