<svg xmlns="http://www.w3.org/2000/svg" xmlns:xlink="http://www.w3.org/1999/xlink" width="375" height="812" viewBox="0 0 375 812">
  <defs>
    <style>
      .cls-1 {
        clip-path: url(#clip-iPhone_X_XS_11_Pro_28);
      }

      .cls-11, .cls-2 {
        fill: #9b64c9;
      }

      .cls-2 {
        stroke: #707070;
      }

      .cls-3, .cls-4 {
        fill: #fafafa;
      }

      .cls-4, .cls-9 {
        font-size: 20px;
      }

      .cls-4 {
        font-family: MSReferenceSansSerif, MS Reference Sans Serif;
      }

      .cls-5, .cls-9 {
        stroke: rgba(0,0,0,0);
        font-family: SegoeUI, Segoe UI;
      }

      .cls-5 {
        font-size: 25px;
      }

      .cls-6 {
        fill: #af83d3;
      }

      .cls-7 {
        stroke: #fff;
      }

      .cls-10, .cls-7 {
        stroke-linecap: round;
        stroke-linejoin: round;
        stroke-width: 3px;
      }

      .cls-8, .cls-9 {
        fill: #fff;
      }

      .cls-10, .cls-13 {
        fill: none;
      }

      .cls-10 {
        stroke: #af83d3;
      }

      .cls-12 {
        stroke: none;
      }

      .cls-14 {
        filter: url(#Rectangle_111);
      }

      .cls-15 {
        filter: url(#Rectangle_109);
      }

      .cls-16 {
        filter: url(#Rectangle_108);
      }
    </style>
    <filter id="Rectangle_108" x="29" y="657" width="162" height="71" filterUnits="userSpaceOnUse">
      <feOffset dy="5" input="SourceAlpha"/>
      <feGaussianBlur stdDeviation="6" result="blur"/>
      <feFlood flood-opacity="0.161"/>
      <feComposite operator="in" in2="blur"/>
      <feComposite in="SourceGraphic"/>
    </filter>
    <filter id="Rectangle_109" x="177" y="657" width="162" height="71" filterUnits="userSpaceOnUse">
      <feOffset dy="5" input="SourceAlpha"/>
      <feGaussianBlur stdDeviation="6" result="blur-2"/>
      <feFlood flood-opacity="0.161"/>
      <feComposite operator="in" in2="blur-2"/>
      <feComposite in="SourceGraphic"/>
    </filter>
    <filter id="Rectangle_111" x="-9" y="-6" width="394" height="102" filterUnits="userSpaceOnUse">
      <feOffset dy="3" input="SourceAlpha"/>
      <feGaussianBlur stdDeviation="3" result="blur-3"/>
      <feFlood flood-opacity="0.161"/>
      <feComposite operator="in" in2="blur-3"/>
      <feComposite in="SourceGraphic"/>
    </filter>
    <clipPath id="clip-iPhone_X_XS_11_Pro_28">
      <rect width="375" height="812"/>
    </clipPath>
  </defs>
  <g id="iPhone_X_XS_11_Pro_28" data-name="iPhone X, XS, 11 Pro – 28" class="cls-1">
    <rect class="cls-3" width="375" height="812"/>
    <g class="cls-16" transform="matrix(1, 0, 0, 1, 0, 0)">
      <g id="Rectangle_108-2" data-name="Rectangle 108" class="cls-2" transform="translate(47 670)">
        <rect class="cls-12" width="126" height="35" rx="5"/>
        <rect class="cls-13" x="0.5" y="0.5" width="125" height="34" rx="4.5"/>
      </g>
    </g>
    <g class="cls-15" transform="matrix(1, 0, 0, 1, 0, 0)">
      <g id="Rectangle_109-2" data-name="Rectangle 109" class="cls-2" transform="translate(195 670)">
        <rect class="cls-12" width="126" height="35" rx="5"/>
        <rect class="cls-13" x="0.5" y="0.5" width="125" height="34" rx="4.5"/>
      </g>
    </g>
    <path id="Icon_awesome-share-alt" data-name="Icon awesome-share-alt" class="cls-3" d="M19.25,17.5a5.227,5.227,0,0,0-3.27,1.143l-5.6-3.5a5.28,5.28,0,0,0,0-2.28l5.6-3.5A5.241,5.241,0,1,0,14.124,6.39l-5.6,3.5a5.25,5.25,0,1,0,0,8.215l5.6,3.5A5.25,5.25,0,1,0,19.25,17.5Z" transform="translate(52.65 672)"/>
    <text id="Invite" class="cls-4" transform="translate(85 694)"><tspan x="0" y="0">Invite</tspan></text>
    <text id="See_More" data-name="See More" class="cls-4" transform="translate(204 694)"><tspan x="0" y="0">See More</tspan></text>
    <text id="Change_name" data-name="Change name" class="cls-5" transform="translate(25 122)"><tspan x="0" y="0">Change Name</tspan></text>
    <text id="Change_password" data-name="Change password" class="cls-5" transform="translate(25 214)"><tspan x="0" y="0">Change Password</tspan></text>
    <text id="Change_Next_of_Kin" data-name="Change Next of Kin" class="cls-5" transform="translate(25 327)"><tspan x="0" y="0">Change Next Of Kin</tspan></text>
    <g id="Group_24" data-name="Group 24" transform="translate(11 1)">
      <g class="cls-14" transform="matrix(1, 0, 0, 1, -11, -1)">
        <rect id="Rectangle_111-2" data-name="Rectangle 111" class="cls-6" width="376" height="84"/>
      </g>
      <g id="Icon_feather-menu" data-name="Icon feather-menu" transform="translate(21.5 27)">
        <path id="Path_1" data-name="Path 1" class="cls-7" d="M4.5,18h27"/>
        <path id="Path_2" data-name="Path 2" class="cls-7" d="M4.5,9h27"/>
        <path id="Path_3" data-name="Path 3" class="cls-7" d="M4.5,27h27"/>
      </g>
      <path id="Icon_material-language" data-name="Icon material-language" class="cls-8" d="M17.985,3A15,15,0,1,0,33,18,14.993,14.993,0,0,0,17.985,3Zm10.4,9H23.955a23.474,23.474,0,0,0-2.07-5.34A12.044,12.044,0,0,1,28.38,12ZM18,6.06A21.13,21.13,0,0,1,20.865,12h-5.73A21.13,21.13,0,0,1,18,6.06ZM6.39,21a11.733,11.733,0,0,1,0-6h5.07a24.773,24.773,0,0,0-.21,3,24.773,24.773,0,0,0,.21,3Zm1.23,3h4.425a23.474,23.474,0,0,0,2.07,5.34A11.98,11.98,0,0,1,7.62,24Zm4.425-12H7.62a11.98,11.98,0,0,1,6.495-5.34A23.474,23.474,0,0,0,12.045,12ZM18,29.94A21.13,21.13,0,0,1,15.135,24h5.73A21.13,21.13,0,0,1,18,29.94ZM21.51,21H14.49a22.069,22.069,0,0,1-.24-3,21.877,21.877,0,0,1,.24-3h7.02a21.877,21.877,0,0,1,.24,3A22.069,22.069,0,0,1,21.51,21Zm.375,8.34A23.474,23.474,0,0,0,23.955,24H28.38a12.044,12.044,0,0,1-6.495,5.34ZM24.54,21a24.773,24.773,0,0,0,.21-3,24.773,24.773,0,0,0-.21-3h5.07a11.733,11.733,0,0,1,0,6Z" transform="translate(298 27)"/>
      <path id="Icon_awesome-chevron-down" data-name="Icon awesome-chevron-down" class="cls-8" d="M7.776,16.363.655,10.578a.624.624,0,0,1,0-1.01l.831-.675a1.029,1.029,0,0,1,1.242,0L8.4,13.476l5.67-4.585a1.029,1.029,0,0,1,1.242,0l.831.675a.624.624,0,0,1,0,1.01L9.02,16.363A1.029,1.029,0,0,1,7.776,16.363Z" transform="translate(331.602 47.317)"/>
      <text id="EN" class="cls-9" transform="translate(265 58)"><tspan x="0" y="0">EN</tspan></text>
    </g>
    <path id="Icon_feather-edit-2" data-name="Icon feather-edit-2" class="cls-10" d="M25.5,4.5a4.243,4.243,0,0,1,6,6L11.25,30.75,3,33l2.25-8.25Z" transform="translate(315.5 93.243)"/>
    <path id="Icon_feather-edit-2-2" data-name="Icon feather-edit-2" class="cls-10" d="M25.5,4.5a4.243,4.243,0,0,1,6,6L11.25,30.75,3,33l2.25-8.25Z" transform="translate(315.5 185.243)"/>
    <path id="Icon_feather-edit-2-3" data-name="Icon feather-edit-2" class="cls-10" d="M25.5,4.5a4.243,4.243,0,0,1,6,6L11.25,30.75,3,33l2.25-8.25Z" transform="translate(315.5 298.243)"/>
    <path id="Icon_ionic-ios-arrow-back" data-name="Icon ionic-ios-arrow-back" class="cls-11" d="M16.527,18,28.111,9.07a1.427,1.427,0,0,0,0-2.384,2.681,2.681,0,0,0-3.1,0L11.888,16.8a1.423,1.423,0,0,0-.064,2.327L25,29.32a2.685,2.685,0,0,0,3.1,0,1.427,1.427,0,0,0,0-2.384Z" transform="translate(44.749 747.807)"/>
  </g>
</svg>
